<?xml version="1.0" encoding="UTF-8"?>
<svg xmlns="http://www.w3.org/2000/svg" xmlns:se="https://standardebooks.org/vocab/1.0" version="1.1" viewBox="0 0 1400 590" se:generated-from="847f1bdcf816f37e8667c700a8e70cb03ca89503">
	<path d="M 397.95855,66.843806 416.29827,66.843806 416.29827,128.60001 433.88943,128.60001 433.88943,66.843806 452.22915,66.843806 452.22915,51.404756 397.95855,51.404756 397.95855,66.843806 Z"/>
	<path d="M 481.15529,97.628336 506.04491,97.628336 506.04491,128.60001 523.63607,128.60001 523.63607,51.404756 506.04491,51.404756 506.04491,82.189286 481.15529,82.189286 481.15529,51.404756 463.56413,51.404756 463.56413,128.60001 481.15529,128.60001 481.15529,97.628336 Z"/>
	<path d="M 584.00319,51.404756 539.83815,51.404756 539.83815,128.60001 584.00319,128.60001 584.00319,113.16096 557.42931,113.16096 557.42931,97.628336 582.88035,97.628336 582.88035,82.189286 557.42931,82.189286 557.42931,66.843806 584.00319,66.843806 584.00319,51.404756 Z"/>
	<path d="M 629.70162,51.404756 629.70162,128.60001 647.29278,128.60001 647.29278,99.967586 657.86619,99.967586 C 672.93096,99.967586 684.25293,91.078436 684.25293,75.171536 684.25293,59.171066 672.93096,51.404756 657.86619,51.404756 L 629.70162,51.404756 Z M 647.29278,85.932086 647.29278,65.440256 652.25199,65.440256 C 659.17617,65.440256 665.72607,67.779506 665.72607,75.732956 665.72607,83.592836 659.17617,85.932086 652.25199,85.932086 L 647.29278,85.932086 Z"/>
	<path d="M 697.02069,51.404756 697.02069,128.60001 714.61185,128.60001 714.61185,98.096186 738.19149,128.60001 760.55472,128.60001 733.98084,96.692636 C 743.43141,93.698396 749.79417,85.932086 749.79417,74.329406 749.79417,59.171066 738.94005,51.404756 724.62384,51.404756 L 697.02069,51.404756 Z M 714.61185,85.651376 714.61185,65.440256 716.67039,65.440256 C 723.31386,65.440256 731.26731,65.908106 731.26731,75.545816 731.26731,85.183526 723.31386,85.651376 716.67039,85.651376 L 714.61185,85.651376 Z"/>
	<path d="M 786.68253,51.404756 769.09137,51.404756 769.09137,128.60001 786.68253,128.60001 786.68253,51.404756 Z"/>
	<path d="M 820.55765,80.692166 820.74479,80.692166 851.43575,128.60001 869.02691,128.60001 869.02691,51.404756 851.43575,51.404756 851.43575,99.312596 851.24861,99.312596 820.55765,51.404756 802.96649,51.404756 802.96649,128.60001 820.55765,128.60001 820.55765,80.692166 Z"/>
	<path d="M 923.42455,112.69311 C 905.73982,112.69311 897.97351,100.34187 897.97351,89.955596 897.97351,79.662896 905.73982,67.311656 923.42455,67.311656 932.40727,67.311656 938.58289,72.083726 938.58289,72.083726 L 946.06849,57.112526 C 946.06849,57.112526 937.46005,50.001206 920.71102,50.001206 898.81564,50.001206 878.88523,67.966646 878.88523,90.142736 878.88523,112.22526 898.90921,130.00356 920.71102,130.00356 937.46005,130.00356 946.06849,122.89224 946.06849,122.89224 L 938.58289,107.92104 C 938.58289,107.92104 932.40727,112.69311 923.42455,112.69311 Z"/>
	<path d="M 1002.0554,51.404756 957.89035,51.404756 957.89035,128.60001 1002.0554,128.60001 1002.0554,113.16096 975.48151,113.16096 975.48151,97.628336 1000.9326,97.628336 1000.9326,82.189286 975.48151,82.189286 975.48151,66.843806 1002.0554,66.843806 1002.0554,51.404756 Z"/>
	<path d="M 243.49464,253.01785 243.635,253.01785 266.65404,288.95001 279.84788,288.95001 279.84788,231.05151 266.65404,231.05151 266.65404,266.98367 266.51368,266.98367 243.49464,231.05151 230.3008,231.05151 230.3008,288.95001 243.49464,288.95001 243.49464,253.01785 Z"/>
	<path d="M 306.47538,231.05151 293.28154,231.05151 293.28154,288.95001 306.47538,288.95001 306.47538,231.05151 Z"/>
	<path d="M 348.55454,277.01941 C 335.29052,277.01941 329.46558,267.75565 329.46558,259.96567 329.46558,252.24587 335.29052,242.98211 348.55454,242.98211 355.29182,242.98211 359.9237,246.56129 359.9237,246.56129 L 365.5381,235.33249 C 365.5381,235.33249 359.08154,229.99881 346.51932,229.99881 330.0972,229.99881 315.14886,243.47337 315.14886,260.10603 315.14886,276.66851 330.16738,290.00271 346.51932,290.00271 359.08154,290.00271 365.5381,284.66903 365.5381,284.66903 L 359.9237,273.44023 C 359.9237,273.44023 355.29182,277.01941 348.55454,277.01941 Z"/>
	<path d="M 406.46368,277.01941 C 393.19966,277.01941 387.37472,267.75565 387.37472,259.96567 387.37472,252.24587 393.19966,242.98211 406.46368,242.98211 413.20096,242.98211 417.83284,246.56129 417.83284,246.56129 L 423.44724,235.33249 C 423.44724,235.33249 416.99068,229.99881 404.42846,229.99881 388.00634,229.99881 373.058,243.47337 373.058,260.10603 373.058,276.66851 388.07652,290.00271 404.42846,290.00271 416.99068,290.00271 423.44724,284.66903 423.44724,284.66903 L 417.83284,273.44023 C 417.83284,273.44023 413.20096,277.01941 406.46368,277.01941 Z"/>
	<path d="M 430.96715,259.96567 C 430.96715,276.87905 443.03811,290.00271 460.16203,290.00271 476.79469,290.00271 489.28673,276.87905 489.28673,259.96567 489.28673,243.05229 476.23325,229.99881 460.16203,229.99881 444.23117,229.99881 430.96715,243.05229 430.96715,259.96567 Z M 445.21369,259.96567 C 445.21369,251.33353 449.98593,242.70139 460.16203,242.70139 470.40831,242.70139 475.04019,251.33353 475.04019,259.96567 475.04019,268.59781 470.68903,277.22995 460.16203,277.22995 449.35431,277.22995 445.21369,268.59781 445.21369,259.96567 Z"/>
	<path d="M 513.30222,231.05151 500.10838,231.05151 500.10838,288.95001 533.23334,288.95001 533.23334,277.37031 513.30222,277.37031 513.30222,231.05151 Z"/>
	<path d="M 561.07363,208.10265 554.68725,216.17335 571.39009,225.85819 575.32017,220.45433 561.07363,208.10265 Z M 542.12503,259.96567 C 542.12503,276.87905 554.19599,290.00271 571.31991,290.00271 587.95257,290.00271 600.44462,276.87905 600.44462,259.96567 600.44462,243.05229 587.39113,229.99881 571.31991,229.99881 555.38905,229.99881 542.12503,243.05229 542.12503,259.96567 Z M 556.37157,259.96567 C 556.37157,251.33353 561.14381,242.70139 571.31991,242.70139 581.56619,242.70139 586.19807,251.33353 586.19807,259.96567 586.19807,268.59781 581.84691,277.22995 571.31991,277.22995 560.51219,277.22995 556.37157,268.59781 556.37157,259.96567 Z"/>
	<path d="M 683.31886,288.95001 696.5127,288.95001 691.31938,231.05151 677.28338,231.05151 664.44044,264.45719 651.5975,231.05151 637.5615,231.05151 632.36818,288.95001 645.56202,288.95001 648.29904,254.63199 648.64994,254.63199 660.51036,288.59911 668.37052,288.59911 680.23094,254.63199 680.58184,254.63199 683.31886,288.95001 Z"/>
	<path d="M 736.20356,231.05151 723.99224,231.05151 700.6223,288.95001 714.79866,288.95001 719.07964,277.37031 741.11616,277.37031 745.39714,288.95001 759.5735,288.95001 736.20356,231.05151 Z M 736.62464,265.79061 723.57116,265.79061 730.02772,248.94741 730.16808,248.94741 736.62464,265.79061 Z"/>
	<path d="M 795.37923,277.01941 C 782.11521,277.01941 776.29027,267.75565 776.29027,259.96567 776.29027,252.24587 782.11521,242.98211 795.37923,242.98211 802.11651,242.98211 806.74839,246.56129 806.74839,246.56129 L 812.36279,235.33249 C 812.36279,235.33249 805.90623,229.99881 793.34401,229.99881 776.92189,229.99881 761.97355,243.47337 761.97355,260.10603 761.97355,276.66851 776.99207,290.00271 793.34401,290.00271 805.90623,290.00271 812.36279,284.66903 812.36279,284.66903 L 806.74839,273.44023 C 806.74839,273.44023 802.11651,277.01941 795.37923,277.01941 Z"/>
	<path d="M 835.67323,265.72043 854.34111,265.72043 854.34111,288.95001 867.53495,288.95001 867.53495,231.05151 854.34111,231.05151 854.34111,254.14073 835.67323,254.14073 835.67323,231.05151 822.47939,231.05151 822.47939,288.95001 835.67323,288.95001 835.67323,265.72043 Z"/>
	<path d="M 894.13062,231.05151 880.93678,231.05151 880.93678,288.95001 894.13062,288.95001 894.13062,231.05151 Z"/>
	<path d="M 936.99931,231.05151 924.78799,231.05151 901.41805,288.95001 915.59441,288.95001 919.87539,277.37031 941.91191,277.37031 946.19289,288.95001 960.36925,288.95001 936.99931,231.05151 Z M 937.42039,265.79061 924.36691,265.79061 930.82347,248.94741 930.96383,248.94741 937.42039,265.79061 Z"/>
	<path d="M 979.77149,288.95001 990.15813,288.95001 1014.4404,231.05151 999.56225,231.05151 984.96481,269.08907 970.36737,231.05151 955.48921,231.05151 979.77149,288.95001 Z"/>
	<path d="M 1054.7552,231.05151 1021.6303,231.05151 1021.6303,288.95001 1054.7552,288.95001 1054.7552,277.37031 1034.8241,277.37031 1034.8241,265.72043 1053.9131,265.72043 1053.9131,254.14073 1034.8241,254.14073 1034.8241,242.63121 1054.7552,242.63121 1054.7552,231.05151 Z"/>
	<path d="M 1080.534,231.05151 1067.3402,231.05151 1067.3402,288.95001 1100.4651,288.95001 1100.4651,277.37031 1080.534,277.37031 1080.534,231.05151 Z"/>
	<path d="M 1125.1473,231.05151 1111.9534,231.05151 1111.9534,288.95001 1145.0784,288.95001 1145.0784,277.37031 1125.1473,277.37031 1125.1473,231.05151 Z"/>
	<path d="M 1169.7606,231.05151 1156.5668,231.05151 1156.5668,288.95001 1169.7606,288.95001 1169.7606,231.05151 Z"/>
	<path d="M 515.77132,539.29999 525.50239,539.29999 536.49663,500.70319 526.76556,500.70319 520.16901,527.18293 519.93509,527.18293 512.91749,500.70319 506.27417,500.70319 499.25657,527.18293 499.02265,527.18293 492.4261,500.70319 482.64825,500.70319 493.64249,539.29999 503.42034,539.29999 509.59583,517.639 515.77132,539.29999 Z"/>
	<path d="M 545.9243,529.28821 C 542.97691,529.28821 540.59092,531.6742 540.59092,534.66837 540.59092,537.61576 542.97691,540.00175 545.9243,540.00175 548.91847,540.00175 551.30446,537.61576 551.30446,534.66837 551.30446,531.6742 548.91847,529.28821 545.9243,529.28821 Z"/>
	<path d="M 614.87433,539.29999 596.90928,518.99573 612.44157,500.70319 601.77481,500.70319 588.53494,516.4694 588.53494,500.70319 579.73955,500.70319 579.73955,539.29999 588.53494,539.29999 588.53494,522.92559 602.75728,539.29999 614.87433,539.29999 Z"/>
	<path d="M 626.89705,529.28821 C 623.94966,529.28821 621.56368,531.6742 621.56368,534.66837 621.56368,537.61576 623.94966,540.00175 626.89705,540.00175 629.89123,540.00175 632.27721,537.61576 632.27721,534.66837 632.27721,531.6742 629.89123,529.28821 626.89705,529.28821 Z"/>
	<path d="M 692.61899,539.29999 701.41438,539.29999 697.95236,500.70319 688.59556,500.70319 680.03409,522.97237 671.47262,500.70319 662.11582,500.70319 658.6538,539.29999 667.44919,539.29999 669.27377,516.42261 669.50769,516.42261 677.41419,539.06607 682.65399,539.06607 690.56049,516.42261 690.79441,516.42261 692.61899,539.29999 Z"/>
	<path d="M 729.5403,500.70319 721.39989,500.70319 705.82082,539.29999 715.27118,539.29999 718.12501,531.58063 732.81518,531.58063 735.66901,539.29999 745.11938,539.29999 729.5403,500.70319 Z M 729.82101,523.86127 721.11918,523.86127 725.42331,512.63311 725.51688,512.63311 729.82101,523.86127 Z"/>
	<path d="M 751.57917,500.70319 751.57917,539.29999 760.37456,539.29999 760.37456,524.0484 772.16413,539.29999 783.3455,539.29999 770.05885,523.34664 C 774.78403,521.84956 777.96534,517.96648 777.96534,512.16527 777.96534,504.58626 772.5384,500.70319 765.38045,500.70319 L 751.57917,500.70319 Z M 760.37456,517.82613 760.37456,507.72079 761.40381,507.72079 C 764.72547,507.72079 768.70211,507.95471 768.70211,512.77346 768.70211,517.59221 764.72547,517.82613 761.40381,517.82613 L 760.37456,517.82613 Z"/>
	<path d="M 790.1138,500.70319 790.1138,539.29999 798.90919,539.29999 798.90919,524.0484 810.69876,539.29999 821.88014,539.29999 808.59348,523.34664 C 813.31867,521.84956 816.49998,517.96648 816.49998,512.16527 816.49998,504.58626 811.07303,500.70319 803.91508,500.70319 L 790.1138,500.70319 Z M 798.90919,517.82613 798.90919,507.72079 799.93844,507.72079 C 803.26011,507.72079 807.23675,507.95471 807.23675,512.77346 807.23675,517.59221 803.26011,517.82613 799.93844,517.82613 L 798.90919,517.82613 Z"/>
	<path d="M 837.44383,500.70319 828.64844,500.70319 828.64844,539.29999 837.44383,539.29999 837.44383,500.70319 Z"/>
	<path d="M 846.35469,519.9782 C 846.35469,531.25314 854.40154,540.00175 865.81683,540.00175 876.90464,540.00175 885.23219,531.25314 885.23219,519.9782 885.23219,508.70325 876.53037,500.00143 865.81683,500.00143 855.19686,500.00143 846.35469,508.70325 846.35469,519.9782 Z M 855.85184,519.9782 C 855.85184,514.22376 859.03315,508.46933 865.81683,508.46933 872.6473,508.46933 875.73504,514.22376 875.73504,519.9782 875.73504,525.73263 872.83443,531.48706 865.81683,531.48706 858.6121,531.48706 855.85184,525.73263 855.85184,519.9782 Z"/>
	<path d="M 890.2183,508.42255 899.38796,508.42255 899.38796,539.29999 908.18335,539.29999 908.18335,508.42255 917.35302,508.42255 917.35302,500.70319 890.2183,500.70319 890.2183,508.42255 Z"/>
	<path d="M 594.74274,455.60187 C 594.74274,456.7921 597.25071,455.85692 597.25071,456.74959 597.25071,457.8973 595.46538,464.7836 595.46538,468.69434 595.46538,472.00996 597.03817,472.69009 598.18589,472.69009 600.82139,472.69009 604.43457,469.79954 604.43457,468.69434 604.43457,468.09922 604.0945,468.09922 603.96698,468.09922 603.28685,468.09922 602.30917,469.96958 599.97123,469.96958 599.80119,469.96958 598.2284,469.88456 598.2284,467.63164 598.2284,466.95151 599.20608,461.42547 599.58865,458.78997 599.8437,457.04714 599.71618,456.282 600.94891,456.282 601.88409,456.282 603.71193,456.49454 604.39206,456.49454 605.1572,456.49454 605.41225,456.23949 605.41225,455.26181 605.41225,454.75171 605.19971,454.45416 604.30704,454.45416 603.83945,454.45416 603.49939,454.49666 601.84158,454.49666 600.43881,454.49666 600.3538,454.45416 600.3538,454.19911 600.3538,453.56149 601.11894,451.56361 601.11894,451.01101 601.11894,450.62844 600.9064,450.50091 600.69386,450.50091 600.01373,450.50091 599.92872,451.05352 598.2284,452.83885 596.35805,454.79422 594.74274,454.75171 594.74274,455.60187 Z"/>
	<path d="M 606.85022,459.59762 C 606.85022,460.19274 607.19028,460.32026 607.36031,460.32026 607.57285,460.32026 607.70038,460.19274 607.8279,460.06521 608.08295,459.76766 608.42301,457.21718 610.16584,457.21718 610.93098,457.21718 611.61111,457.98232 611.61111,460.10772 611.61111,463.29582 609.78327,469.5445 609.78327,471.24482 609.78327,472.26501 610.63343,472.35002 611.05851,472.35002 L 611.27105,472.35002 C 612.80134,472.35002 612.71632,472.35002 613.6515,465.12366 L 613.86404,463.7209 C 614.07658,461.93556 615.13928,456.36702 617.05214,456.36702 618.58242,456.36702 618.41239,458.15235 619.34757,458.15235 620.11271,458.15235 620.19773,456.8346 620.28274,456.53705 620.41027,456.06946 620.75033,455.51686 620.75033,454.96425 620.75033,454.36914 620.28274,453.6465 619.17754,453.6465 616.03194,453.6465 613.90654,458.02483 613.60899,458.02483 613.52397,458.02483 613.48146,457.98232 612.41876,455.2193 612.16372,454.53917 611.73864,453.73152 610.84597,453.73152 610.4634,453.73152 606.85022,454.75171 606.85022,459.59762 Z"/>
	<path d="M 620.44148,467.33408 C 620.44148,470.0971 620.95158,472.81761 624.98984,472.81761 629.0281,472.81761 632.55626,467.71665 632.7688,467.71665 633.06636,467.71665 632.68379,472.47755 635.4043,472.47755 636.55202,472.47755 638.46488,470.52218 639.52758,468.99189 640.08018,468.22675 640.29272,467.58913 640.29272,467.16405 640.29272,466.99402 640.25021,466.69646 639.91015,466.69646 639.1025,466.69646 638.20983,469.45948 636.80706,469.45948 635.99941,469.45948 635.36179,468.05672 635.36179,466.95151 635.36179,465.3362 635.78687,463.38084 636.12694,461.51048 636.467,459.59762 636.72205,457.64226 637.10462,456.06946 637.40218,454.83673 637.95478,453.81654 637.95478,453.13641 637.95478,452.66882 637.74224,452.49879 637.48719,452.49879 636.63703,452.49879 636.12694,454.58168 635.27678,454.58168 633.87401,454.58168 632.98134,454.11409 631.6636,454.11409 630.55839,454.11409 629.70823,454.32663 628.56051,454.87924 626.30759,455.94194 624.35222,457.98232 622.82193,460.40528 621.50418,462.53068 620.44148,464.95363 620.44148,467.33408 Z M 623.41704,467.07903 C 623.41704,466.31389 623.50206,465.54874 623.62958,464.7836 624.01216,462.57318 625.03235,460.66032 626.26508,458.61994 627.54032,456.45203 629.79324,455.17679 631.53607,455.17679 632.42874,455.17679 634.3416,455.47435 634.3416,456.66457 634.3416,456.7921 633.19388,464.61357 632.17369,466.65395 631.79112,467.4191 629.79324,470.47967 626.73267,470.47967 624.94733,470.47967 623.41704,469.20443 623.41704,467.07903 Z"/>
	<path d="M 641.68751,458.53492 C 641.68751,459.00251 641.77253,459.34258 642.07008,459.34258 643.00526,459.34258 643.47285,456.96213 644.7906,456.96213 645.21568,456.96213 645.76828,457.81229 645.76828,459.30007 645.76828,462.57318 643.89793,469.16192 643.89793,470.94726 643.89793,472.17999 644.23799,472.26501 645.38571,472.26501 646.49092,472.26501 646.83098,472.09498 646.9585,471.1598 647.04352,470.56469 646.74596,471.07478 647.80866,465.3362 648.82886,459.85267 648.31876,460.23524 650.1466,457.64226 651.12429,456.23949 651.93194,455.7719 652.90962,455.7719 655.67264,455.7719 655.88518,458.57743 655.88518,459.25756 655.88518,460.83036 654.99252,466.52643 654.99252,469.75704 654.99252,471.24482 655.71515,472.43504 656.56531,472.43504 658.43566,472.43504 662.17637,469.45948 662.17637,467.80167 662.17637,467.54662 662.09135,467.29157 661.7938,467.29157 661.15618,467.29157 660.98614,467.80167 660.47605,468.43929 660.47605,468.43929 659.49836,469.37446 658.77573,469.37446 658.30814,469.37446 657.96808,469.0344 657.96808,467.84418 657.96808,466.3989 658.69071,461.89306 658.69071,458.9175 658.69071,456.23949 658.0956,453.604 655.12004,453.604 653.3347,453.604 651.08178,455.13428 649.93406,456.02695 648.36127,457.21718 648.06371,458.15235 647.80866,458.15235 647.42609,458.15235 648.31876,453.68901 645.8533,453.68901 644.23799,453.68901 641.68751,456.87711 641.68751,458.53492 Z"/>
	<path d="M 663.63825,469.88456 C 663.63825,472.13748 666.69882,472.69009 668.35663,472.69009 673.79766,472.69009 674.98788,468.65183 674.98788,467.12154 674.98788,464.2735 673.37258,463.08328 672.05483,461.5955 671.03464,460.49029 668.6967,458.74746 668.6967,457.13216 668.6967,455.85692 669.33432,454.87924 670.94962,454.87924 672.60743,454.87924 672.77747,457.25968 674.30775,457.25968 674.52029,457.25968 675.92306,457.13216 675.92306,455.81441 675.92306,454.1566 674.26525,453.604 671.96981,453.604 668.65419,453.604 666.18873,455.55936 666.18873,458.4074 666.18873,460.95788 667.80403,462.06309 669.50435,463.80592 671.03464,465.3362 672.4374,466.56894 672.4374,468.56681 672.4374,469.07691 672.13985,471.28732 669.03676,471.28732 666.44377,471.28732 667.16641,468.35427 664.9985,468.35427 664.48841,468.35427 663.63825,468.56681 663.63825,469.88456 Z"/>
	<path d="M 678.73788,468.5243 C 678.73788,472.52006 679.97062,472.52006 680.82078,472.52006 681.62843,472.52006 683.41376,471.6699 684.51897,470.39466 685.53916,469.20443 686.64437,467.75916 686.64437,467.33408 686.64437,466.909 686.43183,466.65395 686.13428,466.65395 685.02907,466.65395 684.60399,469.67202 682.26605,469.67202 681.71344,469.67202 681.58592,469.45948 681.58592,468.01421 681.58592,466.56894 682.09602,463.89093 682.81865,458.87499 684.17891,449.73577 683.45627,451.30856 685.02907,443.06201 685.15659,442.25436 685.45415,441.70176 685.45415,441.10665 685.45415,440.68157 685.24161,440.42652 684.56148,440.42652 683.45627,440.42652 682.5211,440.8516 679.41801,441.06414 678.86541,441.10665 678.78039,441.44671 678.78039,441.65925 678.78039,442.12684 679.16296,442.25436 680.01312,442.25436 680.52322,442.25436 680.60824,442.21185 681.24586,442.21185 681.88348,442.21185 682.30856,442.55192 682.30856,443.06201 682.30856,443.57211 681.67094,447.39783 680.9483,451.98869 680.52322,454.7092 680.31068,457.72727 679.92811,460.40528 679.84309,461.0854 678.73788,466.10135 678.73788,468.5243 Z"/>
	<path d="M 689.26791,467.33408 C 689.26791,470.0971 689.77801,472.81761 693.81627,472.81761 697.85453,472.81761 701.38269,467.71665 701.59523,467.71665 701.89279,467.71665 701.51021,472.47755 704.23073,472.47755 705.37844,472.47755 707.2913,470.52218 708.354,468.99189 708.90661,468.22675 709.11915,467.58913 709.11915,467.16405 709.11915,466.99402 709.07664,466.69646 708.73657,466.69646 707.92892,466.69646 707.03625,469.45948 705.63349,469.45948 704.82584,469.45948 704.18822,468.05672 704.18822,466.95151 704.18822,465.3362 704.6133,463.38084 704.95336,461.51048 705.29343,459.59762 705.54847,457.64226 705.93105,456.06946 706.2286,454.83673 706.78121,453.81654 706.78121,453.13641 706.78121,452.66882 706.56867,452.49879 706.31362,452.49879 705.46346,452.49879 704.95336,454.58168 704.1032,454.58168 702.70044,454.58168 701.80777,454.11409 700.49002,454.11409 699.38481,454.11409 698.53465,454.32663 697.38694,454.87924 695.13401,455.94194 693.17865,457.98232 691.64836,460.40528 690.33061,462.53068 689.26791,464.95363 689.26791,467.33408 Z M 692.24347,467.07903 C 692.24347,466.31389 692.32849,465.54874 692.45601,464.7836 692.83858,462.57318 693.85877,460.66032 695.09151,458.61994 696.36675,456.45203 698.61967,455.17679 700.3625,455.17679 701.25517,455.17679 703.16803,455.47435 703.16803,456.66457 703.16803,456.7921 702.02031,464.61357 701.00012,466.65395 700.61755,467.4191 698.61967,470.47967 695.55909,470.47967 693.77376,470.47967 692.24347,469.20443 692.24347,467.07903 Z"/>
	<path d="M 711.1416,455.60187 C 711.1416,456.7921 713.64957,455.85692 713.64957,456.74959 713.64957,457.8973 711.86423,464.7836 711.86423,468.69434 711.86423,472.00996 713.43703,472.69009 714.58475,472.69009 717.22024,472.69009 720.83342,469.79954 720.83342,468.69434 720.83342,468.09922 720.49336,468.09922 720.36583,468.09922 719.68571,468.09922 718.70802,469.96958 716.37008,469.96958 716.20005,469.96958 714.62725,469.88456 714.62725,467.63164 714.62725,466.95151 715.60494,461.42547 715.98751,458.78997 716.24256,457.04714 716.11503,456.282 717.34777,456.282 718.28294,456.282 720.11079,456.49454 720.79091,456.49454 721.55606,456.49454 721.81111,456.23949 721.81111,455.26181 721.81111,454.75171 721.59857,454.45416 720.7059,454.45416 720.23831,454.45416 719.89825,454.49666 718.24043,454.49666 716.83767,454.49666 716.75265,454.45416 716.75265,454.19911 716.75265,453.56149 717.5178,451.56361 717.5178,451.01101 717.5178,450.62844 717.30526,450.50091 717.09272,450.50091 716.41259,450.50091 716.32757,451.05352 714.62725,452.83885 712.7569,454.79422 711.1416,454.75171 711.1416,455.60187 Z"/>
	<path d="M 723.39054,465.93132 C 723.39054,469.71453 724.70829,472.69009 730.10681,472.69009 733.805,472.69009 737.5032,469.71453 737.5032,468.73684 737.5032,468.4818 737.33317,468.31176 736.9931,468.31176 736.52552,468.31176 734.8252,470.13961 732.40224,470.13961 728.19395,470.13961 726.28109,468.01421 726.28109,464.82611 726.28109,463.7209 726.40861,463.08328 727.00372,463.08328 730.99948,463.04077 733.29491,462.1056 733.67748,461.93556 734.48513,461.5955 737.80076,459.85267 737.80076,456.7921 737.80076,454.92174 736.10044,453.6465 734.10256,453.6465 731.72211,453.6465 729.76674,454.41165 728.19395,455.89943 725.2609,458.61994 723.39054,462.27563 723.39054,465.93132 Z M 726.8762,461.51048 C 726.8762,460.95788 727.85388,458.23737 729.12912,456.91962 730.23433,455.7719 731.55208,454.92174 732.61478,454.92174 733.33742,454.92174 734.8677,455.30432 734.8677,456.91962 734.8677,459.59762 731.38205,462.36064 727.25877,462.36064 726.96122,462.36064 726.8762,461.80804 726.8762,461.51048 Z"/>
	<path d="M 739.85575,466.86649 C 739.85575,470.05459 741.34353,472.52006 744.95671,472.52006 749.16501,472.52006 751.33291,467.75916 751.71549,467.75916 752.3106,467.75916 751.33291,472.52006 754.30847,472.52006 757.07149,472.52006 759.7495,468.22675 759.7495,467.33408 759.7495,467.16405 759.62197,466.95151 759.28191,466.95151 758.60178,466.95151 757.6241,469.587 755.75375,469.587 754.77606,469.587 754.64854,468.69434 754.64854,467.75916 754.64854,466.48392 755.07362,463.80592 755.54121,460.57531 757.92165,443.18954 758.34673,441.82928 758.34673,440.72407 758.34673,440.3415 758.04918,440.00144 757.66661,440.00144 756.51889,440.00144 756.77394,440.08645 754.39349,440.68157 753.20327,440.97912 751.71549,440.80909 751.71549,441.53173 751.71549,441.82928 751.97053,441.99931 752.39561,441.99931 752.43812,441.99931 753.41581,441.95681 753.88339,441.95681 754.52101,441.95681 755.11613,442.38189 755.11613,443.01951 755.11613,443.31706 753.71336,454.49666 753.58584,454.49666 752.39561,454.49666 751.54545,453.94406 750.44025,453.94406 745.38179,453.94406 739.85575,460.27775 739.85575,466.86649 Z M 742.83131,465.67627 C 742.83131,461.21293 746.31697,454.83673 750.22771,454.83673 751.37542,454.83673 753.07574,455.38933 753.07574,456.53705 753.07574,458.23737 752.43812,465.71878 750.7378,467.84418 749.63259,469.24694 747.97478,470.05459 746.44449,470.05459 743.85151,470.05459 742.83131,468.14173 742.83131,465.67627 Z"/>
	<path d="M 771.05796,469.16192 C 771.05796,471.62739 773.73596,472.7326 776.24393,472.7326 782.83267,472.7326 787.84862,465.12366 787.84862,459.34258 787.84862,456.57956 786.36084,453.94406 783.17274,453.94406 778.28432,453.94406 776.28644,457.8973 775.69133,457.8973 775.60631,457.8973 775.47879,457.55724 775.47879,457.25968 775.47879,454.19911 778.1993,441.53173 778.1993,440.76658 778.1993,440.29899 777.85924,440.00144 777.39165,440.00144 777.1366,440.00144 776.37146,440.25649 774.71365,440.46903 772.75828,440.72407 771.56805,440.68157 771.56805,441.53173 771.56805,442.12684 771.90812,442.12684 772.37571,442.12684 773.01333,442.12684 773.48091,442.04182 774.11853,442.04182 774.96869,442.04182 775.18123,442.33938 775.18123,442.55192 775.18123,443.57211 774.92619,445.05989 774.54361,446.88773 773.90599,450.03332 773.3959,454.1566 772.63075,458.57743 772.03564,462.02058 771.05796,466.44141 771.05796,469.16192 Z M 773.86349,468.65183 C 773.86349,468.22675 774.33107,463.67839 775.56381,460.32026 776.92406,456.62206 779.68708,456.19698 780.70727,456.19698 783.04521,456.19698 784.87306,458.15235 784.87306,460.5328 784.87306,465.42122 780.96232,471.54237 777.1366,471.54237 774.50111,471.54237 773.86349,470.0971 773.86349,468.65183 Z"/>
	<path d="M 789.4938,477.49349 C 789.4938,479.44886 791.19412,480.00146 793.02196,480.00146 797.01772,480.00146 799.73823,475.15555 801.7361,470.0971 804.24408,463.76341 805.26427,457.8973 805.26427,455.98444 805.26427,454.6667 804.54163,453.73152 803.60646,453.73152 802.58626,453.73152 802.16118,454.53917 802.16118,455.30432 802.16118,456.45203 803.22388,457.30219 803.22388,458.53492 803.22388,461.38296 802.28871,465.93132 801.6936,465.93132 801.22601,465.93132 797.18775,453.85904 793.06447,453.85904 790.47148,453.85904 789.62132,457.55724 789.62132,459.34258 789.62132,460.06521 789.79136,460.27775 790.0464,460.27775 791.32164,460.27775 790.42898,457.08965 792.89444,457.08965 795.14736,457.08965 799.82324,468.05672 799.82324,470.43716 799.82324,472.05247 797.01772,477.49349 794.55225,477.49349 792.59688,477.49349 792.55438,476.09073 790.85406,476.09073 790.13142,476.09073 789.4938,476.77086 789.4938,477.49349 Z"/>
</svg>
